<?xml version="1.0" standalone="no"?>
<!DOCTYPE svg PUBLIC "-//W3C//DTD SVG 1.1//EN" "http://www.w3.org/Graphics/SVG/1.1/DTD/svg11.dtd">
<svg t="1553602091853" class="icon" style=""
     viewBox="0 0 26 26"
     version="1.1" xmlns="http://www.w3.org/2000/svg" p-id="510" xmlns:xlink="http://www.w3.org/1999/xlink" width="200" height="200">
<defs>
<style type="text/css"></style>
</defs>
 <path fill="#333" fill-rule="evenodd" d="M9.001 15.009V23a1 1 0 0 0 1 1h6a1 1 0 0 0 1-1v-7.981l7.788-10.01a1 1 0 0 0-1.578-1.228l-8 10.28a1 1 0 0 0-.21.615V22h-4v-7.324a1 1 0 0 0-.2-.6L4.001 5h14a1 1 0 0 0 0-2H2a1 1 0 0 0-.8 1.6L9 15.009z"></path>
</svg>