<?xml version="1.0" standalone="no"?>
<!DOCTYPE svg PUBLIC "-//W3C//DTD SVG 1.1//EN" "http://www.w3.org/Graphics/SVG/1.1/DTD/svg11.dtd">
<svg t="1553602091853" class="icon" style=""
     viewBox="0 0 22 22"
     version="1.1" xmlns="http://www.w3.org/2000/svg" p-id="510" xmlns:xlink="http://www.w3.org/1999/xlink" width="200" height="200">
<defs>
<style type="text/css"></style>
</defs>
 <path fill="#8e8e93" fill-rule="evenodd" d="M7.25 8a.75.75 0 0 1 0-1.5h7.5a.75.75 0 1 1 0 1.5h-7.5zm0 5.004a.75.75 0 1 1 0-1.5h4.498a.75.75 0 1 1 0 1.5H7.25zM3.5 3v16h9.75c2.9 0 5.25-2.35 5.25-5.25V5.748a.75.75 0 1 1 1.5 0v8.002a6.75 6.75 0 0 1-6.75 6.75H2.75a.75.75 0 0 1-.75-.75V2.25a.75.75 0 0 1 .75-.75h16.5a.75.75 0 1 1 0 1.5H3.5z"></path>
</svg>