<?xml version="1.0" standalone="no"?>
<!DOCTYPE svg PUBLIC "-//W3C//DTD SVG 1.1//EN" "http://www.w3.org/Graphics/SVG/1.1/DTD/svg11.dtd">
<svg t="1553602091853" class="icon" style=""
     viewBox="0 0 22 22"
     version="1.1" xmlns="http://www.w3.org/2000/svg" p-id="510" xmlns:xlink="http://www.w3.org/1999/xlink" width="200" height="200">
<defs>
<style type="text/css"></style>
</defs>
  <path fill="#8e8e93" fill-rule="evenodd" d="M10.955 12H7.75a5.25 5.25 0 0 0-5.25 5.25v2.25h17v-2.25a5.244 5.244 0 0 0-2.626-4.548.75.75 0 0 1 .75-1.3l.183.11A6.745 6.745 0 0 1 21 17.25v3a.75.75 0 0 1-.75.75H1.75a.75.75 0 0 1-.75-.75v-3a6.75 6.75 0 0 1 6.436-6.743A4.984 4.984 0 0 1 6 7V6a5 5 0 0 1 10 0v1a5 5 0 0 1-5.045 5zM11 10.5A3.5 3.5 0 0 0 14.5 7V6a3.5 3.5 0 0 0-7 0v1a3.5 3.5 0 0 0 3.5 3.5z"></path>
</svg>