<?xml version="1.0" standalone="no"?>
<!DOCTYPE svg PUBLIC "-//W3C//DTD SVG 1.1//EN" "http://www.w3.org/Graphics/SVG/1.1/DTD/svg11.dtd">
<svg t="1553602091853" class="icon" style=""
     viewBox="0 0 26 31"
     version="1.1" xmlns="http://www.w3.org/2000/svg" p-id="510" xmlns:xlink="http://www.w3.org/1999/xlink" width="200" height="200">
<defs>
<style type="text/css"></style>
</defs>
    <path fill="#fff" fill-rule="evenodd" d="M22.116 22.601c-2.329 2.804-7.669 7.827-7.669 7.827-.799.762-2.094.763-2.897-.008 0 0-5.26-4.97-7.643-7.796C1.524 19.8 0 16.89 0 13.194 0 5.908 5.82 0 13 0s13 5.907 13 13.195c0 3.682-1.554 6.602-3.884 9.406zM18 13a5 5 0 1 0-10 0 5 5 0 0 0 10 0z"></path>
</svg>